<?xml version="1.0" encoding="UTF-8" standalone="no"?>
<!DOCTYPE svg PUBLIC "-//W3C//DTD SVG 1.1//EN"
 "http://www.w3.org/Graphics/SVG/1.1/DTD/svg11.dtd">
<!-- Generated by graphviz version 14.1.3 (20260303.0454)
 -->
<!-- Pages: 1 -->
<svg width="178pt" height="279pt"
 viewBox="0.00 0.00 178.00 279.00" xmlns="http://www.w3.org/2000/svg" xmlns:xlink="http://www.w3.org/1999/xlink">
<g id="graph0" class="graph" transform="scale(1 1) rotate(0) translate(4 275)">
<polygon fill="white" stroke="none" points="-4,4 -4,-275 174.38,-275 174.38,4 -4,4"/>
<g id="clust3" class="cluster">
<title>cluster_associated</title>
</g>
<!-- cdm1_Agent -->
<g id="node1" class="node">
<title>cdm1_Agent</title>
<g id="a_node1"><a xlink:href="https://w3id.org/citydata/part1/v1/Agent" xlink:title="&lt;TABLE&gt;">
<polygon fill="lightgray" stroke="none" points="1,-244.88 1,-261.12 66.75,-261.12 66.75,-244.88 1,-244.88"/>
<text xml:space="preserve" text-anchor="start" x="2" y="-248.88" font-family="Arial" font-size="12.00">cdm1:Agent</text>
<polygon fill="none" stroke="black" points="0,-243.88 0,-262.12 67.75,-262.12 67.75,-243.88 0,-243.88"/>
</a>
</g>
</g>
<!-- ITSAgentThing -->
<g id="node2" class="node">
<title>ITSAgentThing</title>
<g id="a_node2"><a xlink:href="../ITSAgentThing" xlink:title="&lt;TABLE&gt;">
<polygon fill="lightgray" stroke="none" points="86.38,-244.88 86.38,-261.12 169.38,-261.12 169.38,-244.88 86.38,-244.88"/>
<text xml:space="preserve" text-anchor="start" x="87.38" y="-248.88" font-family="Arial" font-size="12.00">ITSAgentThing</text>
<polygon fill="none" stroke="black" points="85.38,-243.88 85.38,-262.12 170.38,-262.12 170.38,-243.88 85.38,-243.88"/>
</a>
</g>
</g>
<!-- Agent -->
<g id="node3" class="node">
<title>Agent</title>
<g id="a_node3"><a xlink:href="../Agent" xlink:title="&lt;TABLE&gt;">
<polygon fill="lightgray" stroke="none" points="64.12,-171.88 64.12,-188.12 97.62,-188.12 97.62,-171.88 64.12,-171.88"/>
<text xml:space="preserve" text-anchor="start" x="65.12" y="-175.88" font-family="Arial" font-size="12.00">Agent</text>
<polygon fill="none" stroke="black" points="63.12,-170.88 63.12,-189.12 98.62,-189.12 98.62,-170.88 63.12,-170.88"/>
</a>
</g>
</g>
<!-- Agent&#45;&gt;cdm1_Agent -->
<g id="edge1" class="edge">
<title>Agent&#45;&gt;cdm1_Agent</title>
<path fill="none" stroke="black" d="M69.82,-197.71C64.27,-206.09 57.42,-216.43 51.19,-225.84"/>
<polygon fill="none" stroke="black" points="48.45,-223.64 45.85,-233.91 54.29,-227.51 48.45,-223.64"/>
</g>
<!-- Agent&#45;&gt;ITSAgentThing -->
<g id="edge2" class="edge">
<title>Agent&#45;&gt;ITSAgentThing</title>
<path fill="none" stroke="black" d="M91.93,-197.71C97.48,-206.09 104.33,-216.43 110.56,-225.84"/>
<polygon fill="none" stroke="black" points="107.46,-227.51 115.9,-233.91 113.3,-223.64 107.46,-227.51"/>
</g>
<!-- Invis -->
<!-- Agent&#45;&gt;Invis -->
<!-- Role -->
<g id="node5" class="node">
<title>Role</title>
<g id="a_node5"><a xlink:href="../Role" xlink:title="&lt;TABLE&gt;">
<polygon fill="lightgray" stroke="none" points="36.12,-25.88 36.12,-42.12 63.62,-42.12 63.62,-25.88 36.12,-25.88"/>
<text xml:space="preserve" text-anchor="start" x="37.12" y="-29.88" font-family="Arial" font-size="12.00">Role</text>
<polygon fill="none" stroke="black" points="35.12,-24.88 35.12,-43.12 64.62,-43.12 64.62,-24.88 35.12,-24.88"/>
</a>
</g>
</g>
<!-- Agent&#45;&gt;Role -->
<g id="edge5" class="edge">
<title>Agent&#45;&gt;Role</title>
<path fill="none" stroke="black" d="M85.23,-162C89.17,-143.59 93.31,-113.56 85.88,-89 82.87,-79.08 77.38,-69.31 71.57,-60.88"/>
<polygon fill="black" stroke="black" points="74.4,-58.82 65.64,-52.86 68.78,-62.98 74.4,-58.82"/>
<text xml:space="preserve" text-anchor="middle" x="113.62" y="-103.3" font-family="Arial" font-size="11.00">playsRole</text>
</g>
<!-- Invis&#45;&gt;Role -->
</g>
</svg>
